<?xml version="1.0" encoding="utf-8"?>
<!-- Generator: Adobe Illustrator 17.1.0, SVG Export Plug-In . SVG Version: 6.00 Build 0)  -->
<!DOCTYPE svg PUBLIC "-//W3C//DTD SVG 1.1//EN" "http://www.w3.org/Graphics/SVG/1.1/DTD/svg11.dtd">
<svg version="1.1" id="Layer_1" xmlns="http://www.w3.org/2000/svg" xmlns:xlink="http://www.w3.org/1999/xlink" x="0px" y="0px"
	 viewBox="1 0 60 40" enable-background="new 1 0 60 40" xml:space="preserve">
<g>
	<g>
		<path fill="#C4DAB0" d="M61,35c0,2.8-2.2,5-5,5H6c-2.8,0-5-2.2-5-5V5c0-2.8,2.2-5,5-5h50c2.8,0,5,2.2,5,5V35z"/>
	</g>
	<rect x="2" y="6.3" fill="#424143" width="59" height="8"/>
	<g>
		<g>
			<path fill="#7D9769" d="M56,1c2.2,0,4,1.8,4,4v30c0,2.2-1.8,4-4,4H6c-2.2,0-4-1.8-4-4V5c0-2.2,1.8-4,4-4H56 M56,0H6
				C3.2,0,1,2.2,1,5v30c0,2.8,2.2,5,5,5h50c2.8,0,5-2.2,5-5V5C61,2.2,58.7,0,56,0L56,0z"/>
		</g>
	</g>
</g>
</svg>
